<svg xmlns="http://www.w3.org/2000/svg" width="512" height="512" viewBox="0 0 512 512" fill="none">
  <defs>
    <radialGradient id="bg" cx="0" cy="0" r="1" gradientUnits="userSpaceOnUse" gradientTransform="translate(256 256) rotate(90) scale(256)">
      <stop offset="0" stop-color="#0E2FAE"/>
      <stop offset="0.6" stop-color="#08217B"/>
      <stop offset="1" stop-color="#041239"/>
    </radialGradient>
    <linearGradient id="treeFill" x1="256" y1="86" x2="256" y2="426" gradientUnits="userSpaceOnUse">
      <stop offset="0" stop-color="#7FE8FF"/>
      <stop offset="0.55" stop-color="#1F7BFF"/>
      <stop offset="1" stop-color="#0A33D0"/>
    </linearGradient>
    <linearGradient id="diamondFill" x1="256" y1="134" x2="256" y2="410" gradientUnits="userSpaceOnUse">
      <stop offset="0" stop-color="#E8FDFF" stop-opacity="0.92"/>
      <stop offset="1" stop-color="#6AD9FF" stop-opacity="0.55"/>
    </linearGradient>
    <filter id="softGlow" x="-50%" y="-50%" width="200%" height="200%">
      <feGaussianBlur stdDeviation="8" result="blur"/>
      <feMerge>
        <feMergeNode in="blur"/>
        <feMergeNode in="SourceGraphic"/>
      </feMerge>
    </filter>
    <filter id="strongGlow" x="-80%" y="-80%" width="260%" height="260%">
      <feGaussianBlur stdDeviation="14" result="blur"/>
      <feColorMatrix in="blur" type="matrix" values="1 0 0 0 0
                                                       0 1 0 0 0
                                                       0 0 1 0 0
                                                       0 0 0 1 0"/>
      <feMerge>
        <feMergeNode in="blur"/>
        <feMergeNode in="SourceGraphic"/>
      </feMerge>
    </filter>
    <clipPath id="treeClip">
      <path d="M256 88C227 131 192 211 160 391C160 400 167 408 176 408H336C345 408 352 400 352 391C320 211 285 131 256 88Z"/>
    </clipPath>
  </defs>

  <rect width="512" height="512" rx="104" fill="url(#bg)"/>

  <!-- atmosphere -->
  <circle cx="256" cy="256" r="210" stroke="#74C8FF" stroke-opacity="0.16" stroke-width="2"/>
  <ellipse cx="256" cy="414" rx="122" ry="24" fill="#3AB5FF" fill-opacity="0.22" filter="url(#softGlow)"/>
  <ellipse cx="256" cy="414" rx="92" ry="10" fill="#A9EDFF" fill-opacity="0.42"/>

  <!-- sparkle lines -->
  <g stroke="#4CC3FF" stroke-opacity="0.5" stroke-linecap="round">
    <line x1="116" y1="165" x2="116" y2="346" stroke-width="2"/>
    <line x1="395" y1="180" x2="395" y2="352" stroke-width="2"/>
    <line x1="155" y1="204" x2="155" y2="320" stroke-width="1.8"/>
    <line x1="356" y1="206" x2="356" y2="328" stroke-width="1.8"/>
  </g>

  <!-- top star -->
  <g filter="url(#strongGlow)">
    <path d="M256 42L266 76L300 66L276 93L306 113L270 115L276 149L256 122L236 149L242 115L206 113L236 93L212 66L246 76L256 42Z" fill="#F8FEFF"/>
  </g>

  <!-- tree -->
  <g filter="url(#softGlow)">
    <path d="M256 88C227 131 192 211 160 391C160 400 167 408 176 408H336C345 408 352 400 352 391C320 211 285 131 256 88Z" fill="url(#treeFill)"/>
    <path d="M256 88C227 131 192 211 160 391C160 400 167 408 176 408H336C345 408 352 400 352 391C320 211 285 131 256 88Z" stroke="#CFFBFF" stroke-width="3"/>
  </g>

  <!-- interior glow -->
  <g clip-path="url(#treeClip)">
    <ellipse cx="256" cy="268" rx="52" ry="145" fill="#87F0FF" fill-opacity="0.28" filter="url(#strongGlow)"/>
    <circle cx="256" cy="330" r="10" fill="#D5FDFF"/>
    <circle cx="236" cy="310" r="4" fill="#D5FDFF" fill-opacity="0.9"/>
    <circle cx="273" cy="290" r="5" fill="#D5FDFF" fill-opacity="0.9"/>
    <circle cx="219" cy="255" r="3.2" fill="#D5FDFF" fill-opacity="0.85"/>
    <circle cx="291" cy="244" r="3.5" fill="#D5FDFF" fill-opacity="0.85"/>
  </g>

  <!-- diamond lattice -->
  <g clip-path="url(#treeClip)" stroke="#F4FEFF" stroke-width="7" stroke-linecap="round" opacity="0.98">
    <!-- diagonal / -->
    <line x1="150" y1="410" x2="282" y2="86"/>
    <line x1="186" y1="410" x2="305" y2="115"/>
    <line x1="222" y1="410" x2="325" y2="154"/>
    <line x1="258" y1="410" x2="341" y2="198"/>
    <line x1="295" y1="410" x2="352" y2="250"/>
    <!-- diagonal \ -->
    <line x1="362" y1="410" x2="230" y2="86"/>
    <line x1="326" y1="410" x2="208" y2="115"/>
    <line x1="290" y1="410" x2="187" y2="154"/>
    <line x1="254" y1="410" x2="171" y2="198"/>
    <line x1="218" y1="410" x2="160" y2="250"/>
  </g>

  <!-- selected filled diamonds -->
  <g clip-path="url(#treeClip)" fill="url(#diamondFill)">
    <path d="M256 170L280 196L256 222L232 196L256 170Z"/>
    <path d="M221 235L253 270L221 305L190 270L221 235Z"/>
    <path d="M291 235L322 270L291 305L259 270L291 235Z"/>
    <path d="M256 285L290 323L256 361L222 323L256 285Z"/>
    <path d="M198 320L229 355L198 390L167 355L198 320Z"/>
    <path d="M314 320L345 355L314 390L283 355L314 320Z"/>
  </g>

  <!-- sparkles -->
  <g fill="#EFFFFF" filter="url(#softGlow)">
    <path d="M104 214L108 228L122 232L108 236L104 250L100 236L86 232L100 228L104 214Z"/>
    <path d="M408 286L412 300L426 304L412 308L408 322L404 308L390 304L404 300L408 286Z"/>
    <path d="M368 172L371 182L381 185L371 188L368 198L365 188L355 185L365 182L368 172Z"/>
    <path d="M143 367L146 377L156 380L146 383L143 393L140 383L130 380L140 377L143 367Z"/>
  </g>

  <!-- tiny dots -->
  <g fill="#92E4FF">
    <circle cx="128" cy="146" r="4"/>
    <circle cx="181" cy="130" r="3"/>
    <circle cx="340" cy="136" r="3.5"/>
    <circle cx="392" cy="144" r="4"/>
    <circle cx="124" cy="388" r="3"/>
    <circle cx="376" cy="391" r="3"/>
    <circle cx="161" cy="225" r="2.5"/>
    <circle cx="352" cy="245" r="2.5"/>
  </g>
</svg>
